<?xml version="1.0" standalone="no"?>
<!DOCTYPE svg PUBLIC "-//W3C//DTD SVG 20010904//EN"
 "http://www.w3.org/TR/2001/REC-SVG-20010904/DTD/svg10.dtd">
<svg version="1.0" xmlns="http://www.w3.org/2000/svg"
 width="640.000000pt" height="1280.000000pt" viewBox="0 0 640.000000 1280.000000"
 preserveAspectRatio="xMidYMid meet">
<metadata>
Created by potrace 1.15, written by Peter Selinger 2001-2017
</metadata>
<g transform="translate(0.000000,1280.000000) scale(0.100000,-0.100000)"
fill="#000000" stroke="none">
<path d="M3146 12784 c-95 -30 -164 -92 -222 -202 0 -1 -17 5 -37 13 -49 20
-83 19 -104 -4 -25 -26 -78 -183 -70 -204 9 -24 67 -57 100 -57 16 0 27 -5 27
-14 0 -11 -8 -11 -39 -3 -64 17 -84 2 -120 -93 -34 -89 -37 -116 -17 -142 15
-20 58 -38 92 -38 18 0 24 -5 24 -21 0 -16 -4 -19 -17 -14 -10 4 -34 9 -54 12
-28 4 -40 1 -56 -17 -23 -24 -73 -153 -73 -186 0 -25 35 -64 58 -65 9 0 2 -6
-15 -12 -38 -14 -52 -33 -78 -101 -30 -82 -34 -113 -18 -136 17 -24 80 -53 96
-43 6 4 8 -2 4 -18 -4 -13 -7 -27 -7 -30 0 -4 -20 1 -45 10 -68 24 -91 7 -132
-94 -18 -44 -32 -89 -33 -101 0 -31 42 -65 89 -71 39 -5 51 -16 33 -27 -5 -3
-24 0 -43 5 -60 19 -83 2 -118 -90 -33 -86 -37 -111 -21 -142 14 -24 77 -51
103 -43 12 4 17 2 13 -4 -10 -17 20 -97 59 -156 20 -30 66 -84 101 -118 l64
-63 0 -2705 c0 -2612 -1 -2706 -19 -2745 -61 -131 -185 -139 -384 -23 -86 50
-199 155 -248 231 -84 130 -124 267 -154 534 -17 154 -33 214 -68 251 -39 42
-75 55 -139 49 -128 -11 -240 -104 -312 -259 -61 -129 -77 -200 -83 -359 -12
-304 42 -547 307 -1379 117 -369 144 -483 138 -594 -8 -137 -51 -251 -245
-642 -260 -524 -339 -760 -374 -1114 -43 -435 79 -777 391 -1091 331 -333 815
-562 1366 -646 157 -24 529 -24 684 0 840 131 1482 584 1683 1188 79 235 76
538 -8 864 -82 319 -216 626 -460 1060 -230 408 -231 409 -215 498 12 64 56
211 140 472 67 210 117 414 129 529 24 235 -55 459 -183 517 -53 24 -70 24
-123 -2 -63 -30 -98 -82 -179 -264 -83 -187 -123 -254 -184 -309 -72 -65 -119
-80 -240 -80 -134 1 -198 24 -275 97 l-55 52 -75 2315 c-78 2406 -88 2703
-109 3310 l-13 365 25 40 c14 22 64 79 112 126 132 130 169 225 156 403 -9
112 -25 183 -86 371 -94 290 -99 331 -75 672 19 274 14 352 -28 428 -58 104
-204 151 -341 109z m-436 -1054 c0 -12 -8 -12 -35 0 -18 8 -17 9 8 9 15 1 27
-3 27 -9z"/>
</g>
</svg>
